<svg version="1.2" xmlns="http://www.w3.org/2000/svg" viewBox="0 0 1232 1232" width="1232" height="1232">
	<style>
		.s0 { fill: #c4aff0 } 
		.s1 { fill: #111111 } 
	</style>
	<g id="Background">
		<path id="Path 0" class="s0" d="m0 616v616h1232v-1232h-1232z"/>
		<path id="Path 1" class="s1" d="m489.67 266.12c-12.74 0.33-28.35 1.14-34.67 1.79-6.33 0.65-18.02 2.1-26 3.22-7.98 1.13-21.02 3.34-29 4.92-7.98 1.58-21.25 4.73-29.5 7-8.25 2.27-19.27 5.48-24.5 7.15-5.23 1.66-16.7 5.83-25.5 9.27-8.8 3.44-19.26 7.89-23.25 9.89-4.9 2.46-7.89 4.69-9.23 6.89-1.09 1.79-2.27 5.27-2.63 7.75-0.35 2.48-0.08 7.87 0.6 12 0.69 4.12 2.8 12 4.71 17.5 1.91 5.5 7.18 17.65 11.72 27 4.54 9.35 10.86 21.27 14.03 26.5l5.78 9.5c7.61 46.5 12.3 73.95 15.33 91 3.03 17.05 10.02 54.85 15.52 84 5.51 29.15 16.49 86.98 24.41 128.5 7.92 41.52 16.47 86.75 19 100.5 2.54 13.75 7.3 40.3 10.6 59 3.3 18.7 6.65 35.01 7.45 36.25 0.8 1.24 3.82 3.36 6.71 4.72 2.89 1.36 8.4 3.19 12.25 4.07 3.85 0.88 9.48 2.87 12.5 4.41 3.02 1.54 9.77 4.19 15 5.88 5.23 1.68 14.23 4.42 20 6.08 5.77 1.65 16.35 4.36 23.5 6.01 7.15 1.65 19.52 4.14 27.5 5.52 7.98 1.39 20.35 3.24 27.5 4.12 7.24 0.89 24.97 1.84 40 2.15 17.3 0.35 32.03 0.11 41-0.66 7.7-0.66 19.62-2.05 26.5-3.09 6.87-1.04 17.67-3.02 24-4.4 6.33-1.38 16-3.81 21.5-5.41 5.5-1.6 14.73-4.56 20.5-6.59 5.77-2.02 15.67-5.96 22-8.75 6.33-2.8 15.1-6.87 19.5-9.06 4.4-2.19 12.95-6.94 19-10.56 6.05-3.62 15.27-9.5 20.5-13.07 5.23-3.57 14.67-10.78 21-16.02 6.33-5.24 18.27-16.3 26.55-24.57 8.28-8.26 18.41-19.53 22.5-25.03 4.1-5.5 10.74-14.95 14.77-21 4.02-6.05 11.32-19.1 16.21-29 5.82-11.76 10.8-23.72 14.39-34.5 3.02-9.08 6.67-21.67 8.12-28 1.44-6.33 3.22-14.88 3.94-19 0.72-4.13 1.86-13.13 2.53-20 0.8-8.09 1.04-21.13 0.69-37-0.38-17.46-1.13-28.38-2.6-38-1.14-7.42-2.57-15.98-3.17-19-0.61-3.02-2.43-10.9-4.06-17.5-1.62-6.6-5.02-18.3-7.54-26-2.53-7.7-6.84-19.4-9.58-26-2.74-6.6-7.46-16.95-10.49-23-3.03-6.05-8.22-15.73-11.53-21.5-3.31-5.77-8.75-14.77-12.09-20-3.33-5.23-9.42-14-13.53-19.5-4.11-5.5-12.28-15.63-18.16-22.5-5.88-6.88-16.71-18.35-24.07-25.5-7.36-7.15-19.01-17.55-25.88-23.1-6.88-5.56-20.15-15.24-29.5-21.52-9.35-6.27-23.08-14.63-30.5-18.58-7.42-3.94-20.25-10.06-28.5-13.6-8.25-3.54-19.95-8.28-26-10.53-6.05-2.26-16.17-5.71-22.5-7.69-6.33-1.97-17.58-5.09-25-6.93-7.42-1.85-18-4.28-23.5-5.42-5.5-1.13-13.83-2.74-18.5-3.58-4.67-0.83-15.02-2.39-23-3.46-7.98-1.07-22.15-2.43-31.5-3.03-9.35-0.59-20.07-1.19-23.83-1.32-3.76-0.13-17.26 0.04-30 0.38z"/>
		<path id="Path 2" class="s0" d="m580.62 518.73c-0.33 1.52-4.18 22.57-8.56 46.77-4.39 24.2-14.54 80.67-22.55 125.5-8.01 44.83-17.59 97.57-21.29 117.21-3.7 19.64-6.34 36.07-5.88 36.5 0.46 0.43 12.61 0.77 27 0.74 19.15-0.03 29.78-0.53 39.66-1.83 7.42-0.98 17.55-2.61 22.5-3.62 4.95-1.01 13.27-3.04 18.5-4.5 5.23-1.47 14.9-4.68 21.5-7.15 6.6-2.46 17.4-7.34 24-10.83 6.6-3.5 17.39-10.11 23.98-14.69 8.02-5.57 16.12-12.47 24.5-20.83 6.89-6.88 15.55-16.77 19.26-22 3.7-5.23 8.72-13.33 11.14-18 2.42-4.67 5.6-11.88 7.08-16 1.47-4.13 3.3-10.42 4.05-14 0.76-3.58 1.87-11.67 2.47-18 0.78-8.26 0.78-14.31 0-21.5-0.59-5.5-2.25-14.5-3.67-20-1.43-5.5-4.13-14.05-6.01-19-1.88-4.95-5.55-13.05-8.16-18-2.61-4.95-6.84-12.15-9.39-16-2.55-3.85-7.53-10.6-11.06-15-3.53-4.4-11.54-12.9-17.8-18.89-6.5-6.21-15.9-13.88-21.89-17.87-5.77-3.84-14.77-9.12-20-11.74-5.23-2.61-12.88-5.95-17-7.43-4.13-1.48-11.77-3.75-17-5.05-5.23-1.3-14-3.06-19.5-3.9-5.5-0.85-13.6-1.8-18-2.11-4.4-0.32-10.09-0.8-12.65-1.07-4.43-0.46-4.68-0.36-5.23 2.29z"/>
	</g>
</svg>
